<?xml version="1.0" standalone="no"?>
<!DOCTYPE svg PUBLIC "-//W3C//DTD SVG 20010904//EN"
 "http://www.w3.org/TR/2001/REC-SVG-20010904/DTD/svg10.dtd">
<svg version="1.0" xmlns="http://www.w3.org/2000/svg"
 width="764.000000pt" height="736.000000pt" viewBox="0 0 764.000000 736.000000"
 preserveAspectRatio="xMidYMid meet">

<g transform="translate(0.000000,736.000000) scale(0.100000,-0.100000)"
fill="#000000" stroke="none">
<path d="M2830 4790 c-292 -12 -413 -22 -442 -36 -15 -8 -47 -14 -72 -14 -33
0 -64 -10 -109 -34 -75 -39 -107 -69 -158 -149 -65 -101 -71 -132 -76 -409 -3
-151 -9 -248 -14 -248 -6 0 -7 -4 -4 -10 4 -7 618 -10 1810 -10 1192 0 1806 3
1810 10 3 6 -1 10 -9 10 -23 0 -25 12 -12 71 13 54 13 99 1 322 -5 99 -9 115
-46 192 -71 151 -230 277 -366 291 -32 3 -71 8 -88 11 -45 9 -2010 11 -2225 3z"/>
<path d="M1874 4070 c0 -58 1 -81 3 -52 2 28 2 76 0 105 -2 28 -3 5 -3 -53z"/>
<path d="M1862 3898 c3 -7 13 -15 22 -16 12 -3 17 1 14 10 -3 7 -13 15 -22 16
-12 3 -17 -1 -14 -10z"/>
<path d="M5572 3443 c-49 -10 -103 -127 -81 -177 7 -14 17 -26 22 -26 6 0 8
-2 5 -6 -3 -3 -41 7 -85 21 -69 23 -85 25 -120 16 -53 -14 -87 -52 -87 -96 0
-44 23 -69 90 -96 30 -13 56 -31 60 -41 3 -10 -6 -43 -20 -72 -37 -77 -34
-111 10 -152 28 -27 44 -34 75 -34 45 0 67 9 120 51 20 16 42 29 48 29 5 0 38
-18 72 -40 80 -52 127 -54 182 -9 51 42 51 78 -3 132 -23 22 -55 58 -72 80
l-32 39 50 -6 c42 -6 57 -3 101 20 29 14 60 35 69 45 25 28 22 74 -7 105 -42
45 -67 53 -133 41 -58 -11 -59 -11 -82 18 -12 15 -25 44 -29 62 -6 35 -23 56
-65 86 -24 17 -42 19 -88 10z"/>
<path d="M2808 3402 c-43 -48 -55 -100 -34 -144 9 -17 16 -33 16 -35 0 -7 -37
-2 -46 7 -11 11 -115 40 -144 40 -29 0 -100 -68 -100 -95 0 -34 33 -69 92 -98
56 -28 98 -59 98 -74 0 -5 -20 -29 -45 -53 -51 -50 -57 -82 -24 -123 46 -59
121 -57 201 4 44 34 67 36 99 8 37 -32 95 -59 129 -59 17 0 48 11 70 25 34 22
40 30 40 61 0 27 -8 44 -32 68 -50 49 -98 110 -98 124 0 9 8 9 36 -3 34 -14
38 -13 104 20 48 24 74 44 85 66 16 29 15 32 -10 65 -37 48 -69 67 -102 60
-107 -22 -123 -17 -144 52 -13 44 -23 58 -67 95 -48 39 -82 36 -124 -11z"/>
<path d="M3714 3406 c-33 -32 -36 -40 -37 -97 -1 -42 2 -64 11 -66 17 -6 15
-23 -3 -23 -8 0 -15 4 -15 8 0 12 -106 42 -148 42 -61 0 -111 -43 -111 -95 0
-42 18 -62 91 -100 61 -31 63 -33 61 -69 -2 -21 -13 -51 -28 -70 -41 -54 -28
-109 35 -141 41 -21 79 -18 125 10 104 63 97 63 158 21 64 -44 120 -55 164
-33 36 19 49 35 58 69 6 22 -1 35 -42 80 -107 120 -111 130 -49 111 29 -9 42
-7 93 18 67 32 88 52 98 91 6 22 1 33 -24 57 -62 60 -76 65 -136 51 -29 -7
-60 -10 -69 -7 -16 7 -40 53 -50 97 -8 35 -71 80 -113 80 -25 0 -43 -9 -69
-34z"/>
<path d="M4621 3410 c-32 -44 -52 -116 -40 -147 5 -14 8 -27 7 -29 -2 -1 -28
6 -58 16 -84 29 -139 26 -178 -9 -24 -22 -32 -38 -32 -64 0 -45 17 -65 86
-101 70 -37 77 -57 40 -121 -42 -70 -33 -116 28 -154 45 -28 95 -27 137 4 19
13 44 32 57 41 26 19 33 17 127 -41 44 -27 96 -32 134 -12 31 15 64 71 56 94
-3 10 -32 47 -65 82 -71 76 -76 96 -25 87 62 -12 152 30 180 84 21 41 19 57
-12 87 -46 43 -80 53 -142 40 -51 -10 -55 -9 -72 12 -11 13 -23 40 -29 61 -6
22 -25 51 -45 69 -29 25 -44 31 -83 31 -42 0 -51 -4 -71 -30z"/>
<path d="M1920 3413 c-41 -28 -58 -55 -65 -103 -6 -37 -4 -47 12 -60 27 -22
18 -42 -15 -33 -15 3 -30 10 -33 15 -3 4 -31 14 -63 20 -55 12 -60 11 -105
-13 -37 -21 -47 -32 -49 -57 -4 -40 18 -72 65 -96 70 -36 123 -71 123 -82 0
-6 -22 -34 -50 -63 -27 -29 -50 -60 -50 -70 0 -42 63 -91 117 -91 15 0 56 18
91 40 34 22 67 40 73 40 6 0 29 -13 52 -28 92 -61 126 -65 185 -22 62 44 57
68 -28 160 -39 41 -70 80 -70 87 0 18 27 16 61 -4 25 -15 30 -15 46 -2 10 8
36 23 58 34 53 25 75 53 75 93 0 26 -5 35 -20 39 -11 3 -20 10 -20 15 0 19
-66 38 -101 28 -74 -22 -110 -1 -130 75 -21 78 -102 118 -159 78z"/>
<path d="M1879 2408 c-14 -134 99 -436 243 -650 83 -123 246 -286 368 -367
160 -106 353 -190 510 -219 155 -29 286 -34 840 -30 538 4 570 5 670 26 394
84 749 337 956 682 97 161 183 406 184 521 0 36 -1 36 -46 43 -26 3 -874 6
-1885 6 -1464 0 -1839 -3 -1840 -12z m2585 -1194 c34 -13 1 -24 -77 -25 -45 0
-76 -3 -69 -6 6 -2 10 -9 7 -14 -7 -10 -917 -12 -954 -2 -64 17 43 22 472 22
281 1 457 5 457 10 0 6 24 12 53 14 28 2 62 4 74 5 12 1 28 -1 37 -4z"/>
</g>
</svg>
